<?xml version="1.0" standalone="no"?>
<!DOCTYPE svg PUBLIC "-//W3C//DTD SVG 20010904//EN"
 "http://www.w3.org/TR/2001/REC-SVG-20010904/DTD/svg10.dtd">
<svg version="1.0" xmlns="http://www.w3.org/2000/svg"
 width="512.000000pt" height="512.000000pt" viewBox="0 0 512.000000 512.000000"
 preserveAspectRatio="xMidYMid meet">
<metadata>
Created by potrace 1.11, written by Peter Selinger 2001-2013
</metadata>
<g transform="translate(0.000000,512.000000) scale(0.100000,-0.100000)"
fill="#000000" stroke="none">
<path d="M2378 4555 c-2 -2 -28 -6 -58 -8 -323 -30 -691 -175 -964 -381 -287
-217 -495 -483 -647 -831 -63 -144 -115 -348 -136 -535 -15 -124 -7 -477 12
-533 2 -7 6 -28 9 -47 3 -20 19 -87 35 -151 86 -334 256 -629 513 -889 51 -52
111 -109 133 -127 22 -17 66 -52 97 -77 31 -25 61 -46 66 -46 5 0 17 -9 27
-20 10 -11 24 -20 31 -20 7 0 14 -4 16 -9 2 -5 10 -11 18 -13 8 -2 17 -5 20
-8 23 -23 52 -42 45 -30 -8 13 -7 13 11 0 10 -8 25 -22 32 -30 12 -13 13 -13
6 0 -5 10 -1 9 14 -3 11 -11 26 -16 31 -12 6 3 14 -1 17 -9 3 -9 10 -13 15
-10 5 3 9 1 9 -4 0 -13 56 -35 69 -27 6 3 11 -1 11 -10 0 -10 9 -15 28 -14 34
1 59 -5 69 -16 4 -4 2 -5 -6 0 -10 6 -12 4 -7 -4 5 -7 14 -10 22 -7 8 3 14 1
14 -4 0 -14 68 -32 99 -25 16 3 32 2 35 -3 4 -6 -3 -8 -16 -4 -12 3 -19 1 -15
-4 3 -5 20 -11 37 -12 22 -2 29 1 24 9 -4 8 -3 9 5 5 6 -4 9 -11 6 -16 -5 -8
37 -22 75 -25 8 -1 28 -5 44 -10 23 -6 32 -4 44 11 13 16 14 17 9 2 -4 -10 -3
-19 1 -20 78 -17 425 -30 416 -16 -8 12 11 9 24 -4 9 -9 12 -9 12 0 0 8 10 11
28 7 15 -2 34 0 42 6 12 9 12 10 -3 5 -11 -3 -16 -2 -12 4 3 6 2 10 -4 10 -5
0 -13 -5 -16 -10 -8 -13 -25 -3 -24 13 0 8 2 8 6 -1 4 -9 9 -10 18 -2 15 13
68 -7 58 -22 -3 -6 4 -5 14 1 11 6 23 7 27 4 6 -6 10 12 7 35 -1 6 3 12 8 12
5 0 8 -8 6 -19 -3 -15 2 -18 31 -18 19 1 34 5 34 9 0 4 -10 7 -21 5 -12 -1
-23 4 -25 11 -1 7 0 8 3 2 2 -5 9 -10 14 -10 6 0 8 4 4 9 -3 5 0 13 6 17 7 4
9 3 5 -4 -6 -11 31 -28 49 -23 19 5 70 13 88 13 9 -1 17 3 17 9 0 5 3 8 8 8 4
-1 9 0 12 1 15 5 47 11 62 11 10 0 20 5 23 10 4 5 11 7 16 4 5 -3 6 1 3 10 -6
14 -8 14 -21 -2 -13 -17 -13 -16 -4 3 6 12 7 25 3 30 -4 5 0 3 9 -4 9 -7 25
-10 35 -6 15 5 16 4 4 -5 -8 -5 -12 -13 -8 -16 3 -3 12 1 21 9 8 8 17 13 20
10 3 -3 19 2 36 10 17 9 34 17 38 18 35 7 63 25 63 40 0 10 -5 18 -11 18 -6 0
-8 -7 -5 -16 6 -14 4 -15 -9 -4 -13 11 -13 15 -3 21 7 5 21 6 32 3 12 -4 16
-2 12 5 -5 7 -1 8 10 4 11 -4 15 -2 11 4 -4 6 -1 16 7 22 10 9 15 8 19 -4 4
-10 -4 -20 -23 -30 -17 -9 -30 -20 -30 -25 0 -5 20 1 45 14 24 13 50 26 57 28
10 4 10 8 -1 22 -11 13 -12 19 -2 29 10 9 11 9 6 -4 -3 -9 1 -21 9 -28 12 -10
14 -7 12 22 -3 37 10 41 52 19 12 -7 22 -9 22 -5 0 5 13 14 29 21 19 8 28 18
25 27 -4 9 0 12 13 9 11 -3 25 2 33 10 11 14 10 19 -4 35 -17 19 -7 39 13 26
6 -3 14 2 19 11 6 11 11 13 16 5 4 -6 12 -11 18 -11 6 0 3 10 -8 23 l-19 22
22 -19 c18 -15 20 -22 11 -33 -9 -11 -13 -11 -19 -1 -4 7 -11 9 -15 5 -4 -4
-3 -12 3 -18 13 -13 53 9 53 29 0 7 4 11 9 7 5 -3 13 0 17 6 4 8 3 9 -4 5 -11
-6 -14 0 -11 20 0 4 -5 11 -13 16 -10 8 -10 9 2 5 8 -2 14 -10 13 -16 -2 -6 8
-11 22 -11 14 0 25 5 25 11 0 6 -7 8 -16 5 -9 -3 -12 -2 -9 5 4 5 15 7 26 4
15 -5 19 -1 19 14 0 12 5 21 11 21 5 0 7 -6 3 -12 -3 -7 9 4 28 25 19 20 40
37 46 37 7 0 12 4 12 10 0 11 -22 9 -31 -3 -3 -5 -9 -2 -12 7 -4 9 5 28 20 46
19 24 28 28 39 19 7 -6 19 -7 26 -3 10 6 9 3 -1 -9 -12 -16 -15 -16 -25 -1
-11 14 -13 14 -27 -2 -13 -16 -12 -17 4 -11 11 4 16 3 12 -4 -4 -6 -13 -8 -21
-5 -14 5 -19 -5 -8 -17 11 -11 47 13 87 56 37 40 47 67 26 67 -6 0 -9 -6 -6
-14 3 -8 -3 -22 -14 -32 -18 -16 -19 -16 -13 -1 3 10 1 17 -5 17 -6 0 -11 -7
-11 -15 0 -18 -16 -20 -26 -3 -4 6 -3 8 3 5 6 -4 14 0 17 9 4 10 13 13 27 9
18 -6 19 -4 10 13 -8 16 -7 23 6 33 9 8 14 9 11 4 -4 -6 2 -16 12 -23 14 -9
21 -9 26 0 4 6 3 8 -3 5 -6 -4 -15 5 -22 19 -6 14 -7 23 -2 20 5 -4 11 -1 13
6 3 9 6 9 12 0 4 -7 2 -12 -3 -12 -6 0 -11 -4 -11 -9 0 -16 37 -8 48 9 11 18
-2 50 -15 37 -4 -5 -1 -12 6 -16 8 -5 9 -11 4 -14 -6 -4 -15 4 -20 16 -9 19
-8 23 8 24 10 1 21 -2 24 -8 4 -5 12 -4 19 4 16 14 11 28 -8 21 -7 -3 -16 2
-20 11 -3 9 -2 13 4 10 9 -5 14 6 12 25 -1 9 37 9 43 0 2 -4 -3 -7 -13 -6 -19
1 -24 -25 -4 -32 8 -2 10 2 5 14 -4 11 -3 15 4 11 6 -4 16 0 23 8 7 8 9 15 4
15 -5 0 -1 5 9 11 20 11 22 40 5 57 -8 8 -8 15 0 25 7 8 8 17 4 21 -4 4 0 6 8
4 9 -2 14 4 14 14 -1 10 3 15 9 11 6 -4 8 0 4 10 -5 12 0 15 23 12 26 -4 35 6
39 41 0 2 7 12 16 21 21 20 10 31 -12 11 -31 -26 -43 -31 -37 -14 3 9 11 13
17 9 6 -4 8 0 4 10 -4 12 -2 14 10 10 13 -5 13 -3 5 14 -13 24 -4 37 15 22 16
-14 18 2 1 19 -8 8 -8 15 0 25 7 8 8 18 4 22 -4 5 -1 5 6 1 11 -7 17 5 13 27
-1 5 2 6 7 3 5 -3 14 6 21 21 6 14 14 23 17 20 3 -3 -9 -27 -27 -53 -22 -32
-27 -45 -16 -41 15 6 15 3 3 -26 -7 -18 -18 -31 -25 -30 -6 2 -11 -2 -11 -7 0
-6 6 -10 14 -10 7 0 23 23 34 50 13 30 16 48 9 45 -7 -4 -3 1 7 9 11 9 17 16
13 16 -3 0 1 16 8 34 10 22 11 37 5 41 -6 3 -10 2 -10 -3 0 -6 -6 -12 -13 -15
-8 -3 -14 1 -14 9 0 7 4 11 8 9 3 -3 13 3 20 12 12 15 12 16 -3 10 -12 -4 -15
-2 -11 8 3 8 10 12 16 8 6 -4 8 0 4 10 -3 10 -2 17 4 17 6 0 8 -13 5 -30 -2
-16 0 -30 5 -30 8 0 14 30 10 53 0 4 3 7 8 7 6 0 10 8 10 18 2 46 6 62 15 62
5 0 6 3 3 6 -3 4 -2 14 2 23 21 38 20 84 -1 115 -12 17 -18 28 -13 24 4 -4 14
0 20 9 11 15 12 13 9 -15 -2 -19 1 -32 7 -32 7 0 10 14 7 35 -2 19 -1 35 2 35
7 0 13 42 14 108 0 28 5 52 11 53 5 0 1 4 -9 8 -11 4 -20 15 -22 24 -1 10 2
15 7 11 5 -3 7 -10 4 -15 -4 -5 1 -9 11 -9 15 0 15 2 1 23 -8 12 -21 21 -27
19 -6 -1 -8 3 -5 9 5 8 10 8 18 0 20 -20 22 -12 22 73 0 46 -4 82 -8 79 -5 -3
-6 -7 -3 -10 3 -3 1 -14 -5 -24 -6 -13 -6 -25 0 -38 8 -14 7 -20 -2 -24 -14
-5 -16 50 -4 70 4 6 1 14 -5 16 -10 4 -9 6 1 6 10 1 11 4 2 15 -10 12 -8 14
11 9 22 -4 22 -4 4 11 -18 14 -15 21 7 17 5 -1 5 3 2 9 -4 6 -12 9 -19 7 -6
-3 -12 4 -12 14 0 22 12 25 19 7 3 -7 4 5 2 27 -2 22 -4 40 -5 40 -1 0 -3 14
-5 30 -4 47 -4 47 -20 41 -8 -3 -15 -1 -15 4 0 6 6 10 14 10 10 0 13 7 9 23
-2 12 -5 30 -5 40 1 9 -4 17 -9 17 -6 0 -7 -4 -4 -10 3 -5 2 -10 -4 -10 -5 0
-9 9 -8 19 0 11 5 17 9 15 4 -3 8 2 8 11 0 12 -5 15 -16 11 -14 -5 -15 -4 -4
9 10 12 9 15 -6 16 -18 0 -18 1 1 9 l20 9 -20 1 c-11 1 -14 4 -7 7 18 7 15 24
-10 52 -13 14 -15 19 -5 12 16 -13 17 -12 8 10 -5 13 -15 23 -23 21 -10 -3
-11 -1 0 9 15 16 16 29 1 29 -5 0 -7 -4 -4 -10 3 -5 2 -10 -4 -10 -5 0 -9 9
-8 19 0 11 5 17 9 15 4 -3 8 0 8 6 0 6 -6 13 -14 16 -8 3 -12 13 -9 25 3 11 0
19 -8 19 -7 0 -9 3 -6 7 4 3 -1 12 -11 20 -9 8 -11 11 -3 7 10 -5 11 -1 6 17
-4 13 -12 29 -19 34 -6 6 -11 16 -12 23 -2 29 -5 33 -14 27 -6 -4 -7 1 -3 11
4 12 3 15 -5 10 -8 -4 -10 -2 -6 7 3 8 -2 17 -10 20 -9 4 -13 13 -10 22 3 8 1
15 -6 15 -6 0 -8 5 -5 10 3 6 1 10 -5 10 -6 0 -9 4 -6 9 4 5 3 11 -1 13 -5 1
-19 24 -32 51 -13 26 -28 47 -33 47 -5 0 -6 5 -3 10 3 6 2 10 -2 10 -5 0 -17
15 -28 33 -10 17 -21 34 -25 37 -3 3 -17 21 -30 40 -13 19 -27 37 -30 40 -3 3
-23 27 -45 55 -54 67 -195 205 -281 275 -88 73 -257 185 -349 232 -187 97
-437 174 -655 203 -48 7 -407 15 -412 10z m2009 -1247 c-3 -8 -6 -5 -6 6 -1
11 2 17 5 13 3 -3 4 -12 1 -19z m93 -242 c0 -3 -4 -8 -10 -11 -5 -3 -10 -1
-10 4 0 6 5 11 10 11 6 0 10 -2 10 -4z m35 -166 c3 -5 2 -10 -4 -10 -5 0 -13
5 -16 10 -3 6 -2 10 4 10 5 0 13 -4 16 -10z m11 -112 c-1 -13 2 -26 7 -29 5
-3 3 -9 -5 -11 -10 -4 -13 5 -13 32 0 21 3 37 6 34 3 -2 6 -14 5 -26z m-1
-377 c3 -5 2 -12 -3 -15 -5 -3 -9 1 -9 9 0 17 3 19 12 6z m5 -51 c-15 -9 -15
-21 0 -30 9 -5 9 -13 1 -27 -5 -11 -7 -24 -3 -28 4 -5 2 -5 -5 -1 -7 4 -9 14
-6 23 5 12 3 14 -8 8 -11 -7 -12 -6 -3 6 6 8 10 26 9 41 -1 19 2 25 12 21 11
-4 11 -8 3 -13z m-16 -99 c3 -5 -1 -11 -9 -14 -9 -4 -12 -1 -8 9 6 16 10 17
17 5z m-21 -114 c-8 -5 -17 -6 -20 -3 -4 3 -1 6 6 6 8 0 10 8 6 23 -7 22 -7
22 8 2 14 -18 14 -21 0 -28z m10 -19 c-4 -7 -8 -20 -8 -28 0 -8 -6 -14 -14
-12 -9 2 -11 -3 -7 -13 3 -9 2 -13 -4 -10 -5 3 -8 -4 -7 -15 1 -11 5 -20 11
-20 5 0 1 -9 -8 -19 -13 -15 -14 -20 -4 -24 7 -3 3 -4 -9 -4 -15 1 -19 5 -13
13 6 6 6 15 2 19 -4 5 -1 5 6 1 9 -6 11 -1 8 20 -3 14 1 39 9 54 8 15 11 31 7
35 -4 5 -2 5 5 1 6 -3 14 -2 18 4 3 5 8 10 11 10 3 0 2 -6 -3 -12z m-173 -483
c-7 -9 -15 -13 -19 -10 -3 3 1 10 9 15 21 14 24 12 10 -5z m-30 -5 c0 -5 -5
-10 -11 -10 -5 0 -7 5 -4 10 3 6 8 10 11 10 2 0 4 -4 4 -10z m-71 -148 c-5 -2
-7 -7 -4 -12 8 -13 -20 -19 -36 -8 -11 8 -10 9 5 4 14 -5 17 -2 12 9 -4 10 -2
14 5 9 8 -4 9 1 4 17 -7 23 -7 23 8 4 9 -11 11 -22 6 -23z m-292 -362 c-1 -10
-5 -17 -9 -14 -4 3 -4 12 -1 21 5 12 3 14 -7 8 -9 -5 -11 -4 -6 4 10 16 25 4
23 -19z m-24 -14 c4 -10 1 -13 -8 -9 -9 3 -18 -4 -23 -18 l-9 -23 -5 22 c-4
12 -2 19 3 16 5 -3 12 2 15 10 8 20 20 20 27 2z m-63 -46 c-8 -5 -17 -7 -19
-4 -3 3 1 9 9 14 8 5 17 7 19 4 3 -3 -1 -9 -9 -14z m-49 -47 c13 -16 12 -17
-3 -4 -10 7 -18 15 -18 17 0 8 8 3 21 -13z m-92 -77 c9 -10 8 -15 -3 -19 -11
-4 -13 -1 -9 11 6 15 5 15 -10 3 -10 -7 -17 -9 -17 -3 0 6 6 13 13 15 6 3 13
6 13 6 1 1 7 -5 13 -13z m-53 -33 c-1 -17 -8 -27 -15 -25 -7 1 -19 -2 -26 -8
-19 -15 -30 6 -14 26 10 13 14 12 31 -3 16 -14 20 -15 18 -3 -3 20 -1 40 4 40
3 0 4 -12 2 -27z m-161 -83 c-3 -5 -1 -10 4 -10 6 0 11 -5 11 -11 0 -8 -5 -8
-15 1 -13 11 -12 30 1 30 3 0 2 -4 -1 -10z m-124 -77 c13 -16 12 -17 -3 -4
-10 7 -18 15 -18 17 0 8 8 3 21 -13z m-22 -7 c9 -11 9 -16 0 -22 -8 -5 -9 -3
-5 5 6 8 2 11 -10 9 -11 -2 -21 -9 -24 -15 -4 -9 -9 -7 -17 6 -10 16 -8 18 13
15 13 -1 24 2 24 7 0 13 6 11 19 -5z m-64 -34 c5 -13 3 -14 -6 -5 -6 6 -18 9
-25 6 -8 -3 -14 -1 -14 4 0 16 38 12 45 -5z m-111 -27 c-7 -17 -34 -21 -34 -4
0 5 4 8 9 4 5 -3 12 -1 16 5 9 15 15 12 9 -5z m-57 -25 c-12 -17 -16 -18 -26
-6 -9 11 -9 16 0 22 8 4 9 3 5 -4 -4 -7 -2 -12 4 -12 6 0 13 7 17 15 3 9 8 14
10 11 3 -3 -2 -14 -10 -26z m-1112 10 c3 -5 1 -10 -4 -10 -6 0 -11 5 -11 10 0
6 2 10 4 10 3 0 8 -4 11 -10z m1075 -35 c0 -5 -5 -3 -10 5 -6 10 -10 11 -10 3
0 -7 -5 -13 -11 -13 -5 0 -7 5 -4 10 10 16 -7 11 -19 -6 -10 -13 -12 -13 -12
4 0 15 6 19 23 17 13 -1 23 3 23 9 0 6 5 4 10 -4 5 -8 10 -19 10 -25z m-88 -7
c-7 -7 -16 -6 -29 1 -16 11 -15 11 6 5 17 -4 21 -3 16 6 -6 9 -4 11 4 5 9 -5
9 -11 3 -17z m-825 -5 c0 -8 -6 -9 -19 -2 -10 5 -18 11 -18 12 0 2 8 3 18 3
10 0 19 -6 19 -13z m87 -15 c-3 -4 -9 -8 -15 -8 -5 0 -9 4 -9 8 0 5 7 9 15 9
8 0 12 -4 9 -9z m599 -1 c-5 -11 -7 -11 -28 1 -19 11 -18 12 5 8 14 -1 24 -6
23 -9z m-533 -11 c-7 -7 -14 -6 -21 1 -9 9 -7 12 9 10 14 -1 18 -5 12 -11z
m42 5 c8 11 9 11 6 1 -4 -16 -22 -18 -24 -2 -2 7 -1 6 3 -1 4 -8 8 -7 15 2z
m72 1 c2 -4 -10 -8 -27 -9 -30 -1 -30 -1 -7 7 14 4 26 8 27 9 1 1 4 -3 7 -7z
m230 -16 c-3 -7 -12 -13 -21 -13 -14 0 -14 1 1 12 8 7 12 16 8 20 -4 5 -2 5 5
1 7 -4 10 -12 7 -20z m63 7 c0 -9 -4 -10 -10 -4 -5 5 -17 7 -26 4 -12 -4 -13
-2 -3 4 19 14 39 12 39 -4z m-262 -3 c3 -5 1 -10 -4 -10 -6 0 -11 5 -11 10 0
6 2 10 4 10 3 0 8 -4 11 -10z m127 -8 c-3 -10 -7 -11 -12 -2 -5 9 -9 9 -14 1
-5 -7 -13 -8 -25 -1 -12 6 -22 5 -31 -3 -12 -10 -12 -9 -3 3 15 20 93 22 85 2z
m38 14 c0 -2 -8 -10 -17 -17 -16 -13 -17 -12 -4 4 13 16 21 21 21 13z"/>
<path d="M3607 903 c-4 -3 -7 -11 -7 -17 0 -6 5 -5 12 2 6 6 9 14 7 17 -3 3
-9 2 -12 -2z"/>
<path d="M4360 1771 c0 -5 5 -13 10 -16 6 -3 10 -2 10 4 0 5 -4 13 -10 16 -5
3 -10 2 -10 -4z"/>
<path d="M4290 1601 c0 -5 -12 -24 -26 -41 -24 -28 -25 -33 -12 -46 14 -14 16
-14 22 1 4 12 2 16 -8 12 -10 -4 -13 -1 -10 8 3 8 12 11 20 8 10 -4 12 0 8 11
-4 9 -3 16 2 15 21 -4 28 2 14 11 -13 8 -12 10 3 10 10 0 15 5 12 10 -8 13
-25 13 -25 1z"/>
<path d="M3726 959 c12 -13 20 -16 22 -9 3 7 -2 16 -9 21 -25 16 -32 9 -13
-12z"/>
<path d="M3562 858 c-17 -17 -15 -28 4 -28 9 0 12 5 8 12 -5 8 -2 9 11 4 15
-5 16 -4 5 9 -15 18 -13 18 -28 3z"/>
<path d="M1857 699 c7 -7 15 -10 18 -7 3 3 -2 9 -12 12 -14 6 -15 5 -6 -5z"/>
</g>
</svg>
