<?xml version="1.0" standalone="no"?>
<!DOCTYPE svg PUBLIC "-//W3C//DTD SVG 20010904//EN"
 "http://www.w3.org/TR/2001/REC-SVG-20010904/DTD/svg10.dtd">
<svg version="1.0" xmlns="http://www.w3.org/2000/svg"
 width="128.000000pt" height="128.000000pt" viewBox="0 0 128.000000 128.000000"
 preserveAspectRatio="xMidYMid meet">
<metadata>
Created by potrace 1.11, written by Peter Selinger 2001-2013
</metadata>
<g transform="translate(0.000000,128.000000) scale(0.100000,-0.100000)"
fill="#000000" stroke="none">
<path d="M1000 1157 c-72 -35 -266 -127 -374 -177 -43 -20 -70 -39 -74 -52 -3
-14 -43 -38 -127 -78 -67 -31 -125 -65 -128 -74 -4 -9 -53 -39 -111 -65 -57
-27 -107 -54 -111 -61 -9 -15 42 -137 62 -144 8 -3 62 17 120 44 63 31 112 48
123 45 11 -3 38 4 60 15 39 20 43 20 54 5 8 -11 26 -17 49 -17 20 0 39 -4 42
-8 3 -5 -45 -111 -105 -236 -61 -125 -109 -235 -108 -244 2 -8 13 -16 26 -18
20 -3 32 17 115 189 l92 193 5 -190 5 -189 25 0 25 0 5 189 5 189 92 -192 c83
-172 95 -192 115 -189 13 2 24 10 26 18 1 9 -47 118 -108 243 -60 126 -110
232 -110 237 0 6 17 9 38 8 56 -2 62 5 62 78 l0 65 83 38 c301 141 337 160
336 178 0 10 -24 65 -52 123 -38 77 -57 106 -72 107 -11 1 -49 -12 -85 -30z
m104 -109 l34 -73 -87 -42 c-47 -24 -148 -72 -224 -107 l-137 -65 -35 69 c-19
38 -35 72 -35 75 0 3 28 18 63 34 34 16 112 52 172 81 113 54 208 98 213 99 1
1 17 -32 36 -71z m-506 -240 l20 -43 -95 -47 c-53 -27 -101 -48 -108 -48 -12
0 -52 77 -43 85 6 6 191 94 199 95 4 0 16 -19 27 -42z m132 -123 c0 -25 -1
-25 -87 -25 l-88 1 38 20 c24 13 48 18 65 15 15 -3 34 -2 42 4 23 15 30 12 30
-15z m-397 -5 c4 -17 -7 -27 -74 -60 -43 -22 -83 -40 -88 -40 -6 0 -15 9 -21
20 -10 19 -4 24 72 60 97 45 104 47 111 20z"/>
</g>
</svg>
